<?xml version="1.0" encoding="UTF-8"?><svg id="b" xmlns="http://www.w3.org/2000/svg" width="48.73" height="165.49" viewBox="0 0 48.73 165.49"><defs><style>.d{fill:#f6e270;}</style></defs><g id="c"><path class="d" d="m48.72,5.91c-.24,3.31-7.09,96.46-7.33,100-.24,3.55-2.6,5.91-5.67,5.91H13.25c-3.31,0-5.67-2.36-5.91-5.91C7.11,102.37.25,9.22.01,5.91-.22,2.6,2.61,0,5.92,0h37.12c3.07,0,5.91,2.6,5.67,5.91Zm-5.91,159.58H5.92c-.95,0-1.89-.95-1.89-1.89v-36.88c0-1.18.95-1.89,1.89-1.89h36.88c1.18,0,1.89.71,1.89,1.89v36.88c0,.95-.71,1.89-1.89,1.89Z"/></g></svg>