<?xml version="1.0" encoding="UTF-8"?><svg id="b" xmlns="http://www.w3.org/2000/svg" width="41.58" height="41.58" viewBox="0 0 41.58 41.58"><defs><style>.d{fill:#f6e270;}</style></defs><g id="c"><path class="d" d="m11.96,6.31h0c3.75,0,6.32,1.71,7.65,5.08.29.74.5,1.51.63,2.29.07.53.14,1.12.22,1.82.31,2.97,2.65,5.32,5.62,5.63.69.07,1.29.14,1.82.22.76.12,1.52.33,2.25.61.04.01.08.03.12.04,3.33,1.34,5.01,3.9,5.01,7.62,0,2.17-.66,3.12-1.16,3.65-.99,1.05-2.6,1.55-3.47,1.75-.87.2-1.57.25-1.8.25l-17.61-.19s-.05,0-.07,0h-4.66s0-4.66,0-4.66c0-.02,0-.05,0-.07l-.19-17.61c0-.18.03-.64.13-1.21.14-.82.61-2.86,1.87-4.05.46-.43,1.27-1.02,3.04-1.14.24-.02.43-.02.6-.02m0-6.31c-.35,0-.68.01-1.01.04-3.12.2-5.36,1.33-6.97,2.85C1.61,5.13.61,8.21.23,10.44.05,11.43,0,12.26,0,12.76l.19,17.66v8.88c0,.58.24,1.1.63,1.46.36.39.88.63,1.46.63h8.88s17.66.19,17.66.19c.65,0,1.84-.09,3.24-.42,2.11-.49,4.68-1.5,6.63-3.56,1.68-1.78,2.89-4.33,2.89-7.99,0-7.34-4.24-11.61-9.08-13.52-.03-.01-.05-.02-.08-.03-1.18-.46-2.4-.78-3.6-.97-.66-.09-1.36-.17-2.09-.25-.08-.73-.16-1.44-.25-2.09-.19-1.23-.52-2.47-1-3.68C23.57,4.24,19.3,0,11.96,0h0Z"/></g></svg>