<?xml version="1.0" encoding="UTF-8"?><svg id="b" xmlns="http://www.w3.org/2000/svg" width="44.08" height="35.26" viewBox="0 0 44.08 35.26"><defs><style>.d{fill:#f6e270;}</style></defs><g id="c"><path class="d" d="m0,19.84c0-1.28.12-2.09.58-3.83.35-.93,3.83-11.14,4.41-13.11.81-2.44,1.74-2.9,3.25-2.9h3.02c1.62,0,3.48.7,2.9,2.9-.58,2.44-1.74,7.66-3.02,12.41h5.92c1.62,0,2.9,1.28,2.9,2.9v14.15c0,1.62-1.28,2.9-2.9,2.9H2.9c-1.62,0-2.9-1.28-2.9-2.9v-12.53Z"/><path class="d" d="m24.13,19.84c0-1.28.12-2.09.7-3.83.23-.93,3.71-11.14,4.41-13.11.81-2.44,1.62-2.9,3.25-2.9h3.02c1.51,0,3.36.7,2.9,2.9-.58,2.44-1.86,7.66-3.02,12.41h5.8c1.62,0,2.9,1.28,2.9,2.9v14.15c0,1.62-1.28,2.9-2.9,2.9h-14.15c-1.62,0-2.9-1.28-2.9-2.9v-12.53Z"/></g></svg>