<svg xmlns="http://www.w3.org/2000/svg" xmlns:xlink="http://www.w3.org/1999/xlink" viewBox="0 0 2076.44 678.44"><defs><style>.cls-1{fill:url(#linear-gradient);}.cls-2{fill:#462523;}.cls-3{fill:#fff;}</style><linearGradient id="linear-gradient" x1="755.79" y1="506.83" x2="1158.99" y2="103.63" gradientUnits="userSpaceOnUse"><stop offset="0.3" stop-color="#f6e270"/><stop offset="0.5" stop-color="#f6f2c0"/><stop offset="0.7" stop-color="#f6e270"/></linearGradient></defs><g id="Layer_2" data-name="Layer 2"><g id="Layer_1-2" data-name="Layer 1"><path class="cls-1" d="M996.92,74.05c2,0,4.25.09,7,.27,20.57,1.33,30,8.18,35.34,13.21,14.6,13.81,20,37.52,21.7,47.07a98.77,98.77,0,0,1,1.55,14.11l-2.22,204.51c0,.26,0,.52,0,.79v54.11h-54.9l-204.51,2.22a111.92,111.92,0,0,1-20.9-3c-10.08-2.34-28.71-8.08-40.27-20.29-5.79-6.12-13.49-17.17-13.49-42.4,0-43.14,19.53-72.87,58.24-88.47l1.35-.51a127.81,127.81,0,0,1,26.09-7.08c6.12-.85,13-1.67,21.1-2.51a73.27,73.27,0,0,0,65.31-65.33c.83-8,1.66-14.95,2.51-21.1a128.18,128.18,0,0,1,7.27-26.63c15.41-39.17,45.28-59,88.79-59h0m0-73.25h0C911.64.79,862,50,839.91,106.26A201.93,201.93,0,0,0,828.34,149c-1.07,7.63-2,15.83-2.91,24.31-8.48.88-16.68,1.84-24.31,2.91a202,202,0,0,0-41.8,11.24l-.9.33C702.2,209.87,653,259.48,653,344.71c0,42.45,14,72.1,33.54,92.75,22.57,23.85,52.51,35.65,77,41.31a178,178,0,0,0,37.67,4.83l205-2.22h103.09a25.07,25.07,0,0,0,24.28-24.28V354L1135.77,149a164.54,164.54,0,0,0-2.63-26.92c-4.51-25.88-16.05-61.7-43.52-87.7-18.68-17.68-44.75-30.77-81-33.12C1004.85,1,1001,.8,996.92.8Z"/><path class="cls-2" d="M194.64,166.47V462.16c0,120.94-4.89,186-87.38,202-32.16,6.29-37.75,7.69-61.52,12.58C22,681,9.39,678.17,7.29,657.9c-2.09-18.18-4.19-38.45-7-65-1.39-16.78,1.4-28,21.67-38.45,33.56-16.78,35-25.87,35-64.31V166.47A17.31,17.31,0,0,1,74.4,149H177.16A17.76,17.76,0,0,1,194.64,166.47Zm0-148.2V91a17.76,17.76,0,0,1-17.48,17.48H74.4A17.31,17.31,0,0,1,56.93,91V18.27A17.3,17.3,0,0,1,74.4.8H177.16C186.25.8,194.64,9.18,194.64,18.27Z"/><path class="cls-2" d="M266.12,467.36V16.24A16.08,16.08,0,0,1,282.36,0h95.52a16.09,16.09,0,0,1,16.25,16.24V159.35c11.7-11.7,48.09-29.89,87.07-29.89,86.43,0,133.87,44.83,133.87,124.76V467.36a16.08,16.08,0,0,1-16.25,16.24H503.3a16.08,16.08,0,0,1-16.25-16.24v-191c0-35.74-29.24-45.48-46.78-45.48s-46.14,9.09-46.14,45.48V467.36a16.08,16.08,0,0,1-16.25,16.24H282.36A16.08,16.08,0,0,1,266.12,467.36Z"/><path class="cls-3" d="M1292.66,72.8v62.51c0,22.54-6.94,36.43-27.07,42.53-6.52,2-17,3-24.67,2.27a66.18,66.18,0,0,1-28.63-9.64,3.68,3.68,0,0,1-1.42-4.68c.71-1.56,4.82-11.06,5.39-12.48,1.13-2.12,3.12-2.26,5-1.27,6.66,3.12,12,6.38,18.85,6.8,16,1,24-5.24,24.38-12.9.29-3.82.29-6.23.29-6.23a49.51,49.51,0,0,1-8.65,4.39,35.76,35.76,0,0,1-12.33,2.13,34,34,0,0,1-26.65-12.48,41.87,41.87,0,0,1-9.5-27.07c0-21.83,15.17-39.41,36.15-39.41,7.65,0,17.86,4.82,21,9.07V72.8a3.48,3.48,0,0,1,3.4-3.55h21A3.6,3.6,0,0,1,1292.66,72.8Zm-57.12,33.88c0,10.63,6,17.15,14.31,17.15,9.64,0,14.89-8.08,14.89-17.15,0-6.52-2.84-17.3-14.89-17.3C1238.65,89.38,1235.54,100.44,1235.54,106.68Z"/><path class="cls-3" d="M1383.25,95.19V141a3.51,3.51,0,0,1-3.55,3.55h-20.83a3.51,3.51,0,0,1-3.55-3.55v-2.83c-5.1,5.52-15,8.08-23,8.08-4.4,0-22.68-2.27-22.68-21.27,0-16.3,11.76-24.1,22.68-25.8,7.09-1,17.15-1.41,23-1.7-.14-4.25-1.7-9.49-10.91-9.49-8.51,0-16.59,3.11-20.7,4.81a2.66,2.66,0,0,1-3.54-1.27c-.71-1.42-4.82-11.62-5.25-12.76s-.42-3.12,1.28-3.83a70.29,70.29,0,0,1,31.47-7.65c16.72,0,33.45,7.09,35.44,24.52A27.7,27.7,0,0,1,1383.25,95.19Zm-27.93,24.67v-8.65s-10.77-.56-15,2.84c-5.39,4.11-3.69,13.18,5.38,13.18S1355.32,119.86,1355.32,119.86Z"/><path class="cls-3" d="M1523.3,94.49V141a3.48,3.48,0,0,1-3.4,3.55h-20.84a3.51,3.51,0,0,1-3.54-3.55V99.31c0-7.8-5.11-9.93-8.79-9.93s-8.79,2-8.79,9.78V141a3.51,3.51,0,0,1-3.54,3.55h-20.84A3.51,3.51,0,0,1,1450,141V99.31c0-7.8-5.1-9.93-8.78-9.93s-8.79,2-8.79,9.93V141a3.51,3.51,0,0,1-3.55,3.55h-20.83a3.51,3.51,0,0,1-3.55-3.55V72.8a3.51,3.51,0,0,1,3.55-3.55h20.83a3.51,3.51,0,0,1,3.55,3.55v3.54c3.12-4.53,11.76-9.07,20.27-9.07,10.49,0,17.15,3,21,8.79,6.23-5.11,13.32-8.79,23.1-8.79C1515.65,67.27,1523.3,77.05,1523.3,94.49Z"/><path class="cls-3" d="M1593.47,146.23c-7.79,0-18-5-21-9.08V141a3.51,3.51,0,0,1-3.54,3.55h-20.84a3.51,3.51,0,0,1-3.54-3.55V48.84a3.51,3.51,0,0,1,3.54-3.54H1569a3.51,3.51,0,0,1,3.54,3.54v25a36.84,36.84,0,0,1,21-6.52c20.84,0,36,17.58,36,39.41S1614.31,146.23,1593.47,146.23Zm-6.23-56.71c-8.23,0-14.75,7.8-14.75,17.3S1579,124,1587.24,124s14.31-7.65,14.31-17.15S1595.46,89.52,1587.24,89.52Z"/><path class="cls-3" d="M1673,42.75V141a3.51,3.51,0,0,1-3.54,3.55h-20.84a3.61,3.61,0,0,1-3.55-3.55V42.75a3.61,3.61,0,0,1,3.55-3.55h20.84A3.51,3.51,0,0,1,1673,42.75Z"/><path class="cls-3" d="M1725,42.75V57.49a3.51,3.51,0,0,1-3.55,3.54h-20.84a3.6,3.6,0,0,1-3.54-3.54V42.75a3.6,3.6,0,0,1,3.54-3.55h20.84A3.6,3.6,0,0,1,1725,42.75Zm0,30.05V141a3.51,3.51,0,0,1-3.55,3.55h-20.84a3.6,3.6,0,0,1-3.54-3.55V72.8a3.6,3.6,0,0,1,3.54-3.55h20.84A3.51,3.51,0,0,1,1725,72.8Z"/><path class="cls-3" d="M1746.29,141.12V72.8a3.51,3.51,0,0,1,3.54-3.55h20.84a3.51,3.51,0,0,1,3.55,3.55v3.54c3.11-4.53,13.18-9.07,21.68-9.07,18.86,0,26.51,9.78,26.51,27.22v46.63a3.48,3.48,0,0,1-3.54,3.41H1798a3.48,3.48,0,0,1-3.54-3.41V99.31c0-7.8-6.38-9.93-10.07-9.93-4,0-10.2,2-10.2,9.93v41.81a3.48,3.48,0,0,1-3.55,3.41h-20.84A3.48,3.48,0,0,1,1746.29,141.12Z"/><path class="cls-3" d="M1923.06,72.8v62.51c0,22.54-7,36.43-27.08,42.53-6.52,2-17,3-24.66,2.27a66.26,66.26,0,0,1-28.64-9.64,3.69,3.69,0,0,1-1.41-4.68c.71-1.56,4.82-11.06,5.38-12.48,1.14-2.12,3.12-2.26,5-1.27,6.66,3.12,12,6.38,18.85,6.8,16,1,24-5.24,24.38-12.9.28-3.82.28-6.23.28-6.23a49.42,49.42,0,0,1-8.64,4.39,35.77,35.77,0,0,1-12.34,2.13,34,34,0,0,1-26.65-12.48,41.92,41.92,0,0,1-9.49-27.07c0-21.83,15.16-39.41,36.14-39.41,7.66,0,17.86,4.82,21,9.07V72.8a3.48,3.48,0,0,1,3.41-3.55h21A3.6,3.6,0,0,1,1923.06,72.8Zm-57.13,33.88c0,10.63,6,17.15,14.32,17.15,9.64,0,14.88-8.08,14.88-17.15,0-6.52-2.83-17.3-14.88-17.3C1869.05,89.38,1865.93,100.44,1865.93,106.68Z"/><path class="cls-3" d="M2076.44,85.84v12.9a3.51,3.51,0,0,1-3.54,3.54h-4.68c1.7,19.56-4.39,43.95-44.23,43.95-19.84,0-43.09-7.66-43.09-32.89,0-15.74,14.17-21.26,17.58-22V90.8c-3.12-1.56-11.63-8.08-11.63-22.11,0-18.57,17.86-25.09,32.46-25.09,14.89,0,32,4.82,34.73,23.24.43,3.83-.42,5-4.39,5h-12.9c-4.11,0-5-.29-6.38-2.56-1.7-2.55-5.67-3.68-9.64-3.4s-8.5,2.84-8.5,7.8c0,4.53,2.55,7.65,9.92,8.5a37.67,37.67,0,0,0,4.25.15H2040a7.42,7.42,0,0,1-.71-1.71c-1-3.11.57-4.67,3.12-4.67H2058c2.56,0,3.69.7,4.82,3.68a18.33,18.33,0,0,1,1,2.7h9.07A3.5,3.5,0,0,1,2076.44,85.84ZM2046,102.28h-25c-10.49,0-15.17,3.69-15.17,10.49,0,7.66,9.07,10.49,18,10.49C2043.41,123.26,2047.1,112.91,2046,102.28Z"/><path class="cls-3" d="M1281.18,265.31v45.78a3.51,3.51,0,0,1-3.54,3.55H1256.8a3.5,3.5,0,0,1-3.54-3.55v-2.83c-5.11,5.53-15,8.08-23,8.08-4.39,0-22.68-2.27-22.68-21.27,0-16.3,11.77-24.09,22.68-25.79,7.09-1,17.15-1.42,23-1.71-.15-4.25-1.71-9.49-10.92-9.49-8.5,0-16.58,3.12-20.7,4.82a2.67,2.67,0,0,1-3.54-1.28c-.71-1.42-4.82-11.62-5.24-12.76s-.43-3.12,1.27-3.82a70.17,70.17,0,0,1,31.47-7.66c16.73,0,33.45,7.09,35.44,24.52A27.78,27.78,0,0,1,1281.18,265.31ZM1253.26,290v-8.65s-10.78-.56-15,2.84c-5.39,4.11-3.69,13.18,5.39,13.18S1253.26,290,1253.26,290Z"/><path class="cls-3" d="M1387.5,314.49c-2.55.86-6.66,1.85-15.17,1.85-12.62,0-16.58-7.23-17.58-9.64a36.5,36.5,0,0,1-24.66,9.64c-21,0-36.15-17.72-36.15-39.55s15.17-39.41,36.15-39.41a37.17,37.17,0,0,1,21,6.52V219a3.51,3.51,0,0,1,3.54-3.54h20.84A3.51,3.51,0,0,1,1379,219v67.48c0,6.66,4.26,5.53,6.67,5.53,2.83-.15,3.26,1.13,3.54,3.11.14,1.71,1,11.2,1.27,14C1390.9,312.23,1389.77,313.79,1387.5,314.49Zm-36.43-37.56c0-9.5-6.67-17.29-14.89-17.29s-14.31,7.79-14.31,17.29,6.23,17.15,14.31,17.15S1351.07,286.43,1351.07,276.93Z"/><path class="cls-3" d="M1494.1,314.49c-2.55.86-6.66,1.85-15.17,1.85-12.61,0-16.58-7.23-17.57-9.64a36.52,36.52,0,0,1-24.67,9.64c-21,0-36.15-17.72-36.15-39.55s15.17-39.41,36.15-39.41a37.12,37.12,0,0,1,21,6.52V219a3.51,3.51,0,0,1,3.55-3.54h20.83a3.51,3.51,0,0,1,3.55,3.54v67.48c0,6.66,4.25,5.53,6.66,5.53,2.83-.15,3.26,1.13,3.54,3.11.14,1.71,1,11.2,1.28,14C1497.5,312.23,1496.37,313.79,1494.1,314.49Zm-36.43-37.56c0-9.5-6.66-17.29-14.88-17.29s-14.32,7.79-14.32,17.29,6.24,17.15,14.32,17.15S1457.67,286.43,1457.67,276.93Z"/><path class="cls-3" d="M1540.74,212.86V227.6a3.51,3.51,0,0,1-3.54,3.54h-20.84a3.6,3.6,0,0,1-3.54-3.54V212.86a3.6,3.6,0,0,1,3.54-3.55h20.84A3.6,3.6,0,0,1,1540.74,212.86Zm0,30v68.18a3.51,3.51,0,0,1-3.54,3.55h-20.84a3.6,3.6,0,0,1-3.54-3.55V242.91a3.6,3.6,0,0,1,3.54-3.55h20.84A3.51,3.51,0,0,1,1540.74,242.91Z"/><path class="cls-3" d="M1610.06,286.71c1-1.27,1.56-1.56,4.54-1.56H1632c3.55,0,4.54.85,3.4,4.82-4.25,15-18.71,26.37-36.71,26.37-22.25,0-41-17.72-41-39.55s18.72-39.41,41-39.41A39,39,0,0,1,1635.58,264c1.27,3.83.14,5-3,5h-18.71a3.74,3.74,0,0,1-3.69-1.84c-3-4.11-6.38-6.52-11.48-6.52a16.17,16.17,0,0,0,0,32.32C1603.68,293,1607.23,290.54,1610.06,286.71Z"/><path class="cls-3" d="M1705.61,314.49a98.41,98.41,0,0,1-20.7,1.85c-13.32,0-23.81-6.38-23.81-22.4V263.75h-11.49a3.51,3.51,0,0,1-3.54-3.55V242.77a3.48,3.48,0,0,1,3.54-3.41h11.49V223.77a3.57,3.57,0,0,1,3.54-3.4h21a3.45,3.45,0,0,1,3.4,3.4v15.59h12.48a3.48,3.48,0,0,1,3.54,3.41V260.2a3.51,3.51,0,0,1-3.54,3.55H1689v17.86c0,10.91,2.41,11.9,14.74,10.35,2.7-.43,3.12,1.13,3.41,3.11.28,1.56,1.13,10.64,1.41,14S1707.88,313.93,1705.61,314.49Z"/><path class="cls-3" d="M1759.33,212.86V227.6a3.51,3.51,0,0,1-3.54,3.54H1735a3.6,3.6,0,0,1-3.54-3.54V212.86a3.6,3.6,0,0,1,3.54-3.55h20.84A3.6,3.6,0,0,1,1759.33,212.86Zm0,30v68.18a3.51,3.51,0,0,1-3.54,3.55H1735a3.6,3.6,0,0,1-3.54-3.55V242.91a3.6,3.6,0,0,1,3.54-3.55h20.84A3.51,3.51,0,0,1,1759.33,242.91Z"/><path class="cls-3" d="M1854,276.79c0,21.83-18.72,39.55-41,39.55s-41-17.72-41-39.55,18.71-39.41,41-39.41S1854,255,1854,276.79Zm-25.38,0a15.85,15.85,0,0,0-15.59-16.16c-8.51,0-15.45,7.23-15.45,16.16s6.94,16.16,15.45,16.16A15.85,15.85,0,0,0,1828.65,276.79Z"/><path class="cls-3" d="M1864,311.23V242.91a3.51,3.51,0,0,1,3.55-3.55h20.83a3.51,3.51,0,0,1,3.55,3.55v3.54c3.12-4.53,13.18-9.07,21.68-9.07,18.86,0,26.51,9.78,26.51,27.22v46.63a3.48,3.48,0,0,1-3.54,3.41h-20.84a3.48,3.48,0,0,1-3.54-3.41V269.42c0-7.8-6.38-9.93-10.07-9.93-4,0-10.2,2-10.2,9.93v41.81a3.48,3.48,0,0,1-3.55,3.41H1867.5A3.48,3.48,0,0,1,1864,311.23Z"/><path class="cls-3" d="M1327.25,414.44c-1.28,3.4-22,64.35-23.11,66.76-1,2.56-1.84,3.55-4.39,3.55H1277.5c-2.56,0-3.41-1-4.54-3.55-.28-.56-5.25-19.27-5.25-19.27s-5.1,18.71-5.38,19.27c-1.14,2.56-2,3.55-4.54,3.55h-22.11c-2.55,0-3.4-1-4.54-3.55-1.13-2.41-21.83-63.36-23.1-66.76s.14-5,2.55-5h20.83c4.26,0,5.11,1.27,6.38,5,.71,2,8.93,40.4,8.93,40.4s8.65-39.69,8.94-40.4c1.27-3.69,2.12-5,6.37-5h11.34c4.26,0,5,1.27,6.24,5,.28.71,8.93,40.4,8.93,40.4s8.22-38.42,8.93-40.4c1.42-3.69,2.13-5,6.38-5h20.84C1327.11,409.48,1328.38,411.18,1327.25,414.44Z"/><path class="cls-3" d="M1413.87,446.9c0,21.83-18.72,39.55-41,39.55s-41-17.72-41-39.55,18.71-39.41,41-39.41S1413.87,425.07,1413.87,446.9Zm-25.38,0a15.85,15.85,0,0,0-15.59-16.16c-8.51,0-15.45,7.23-15.45,16.16s6.94,16.16,15.45,16.16A15.85,15.85,0,0,0,1388.49,446.9Z"/><path class="cls-3" d="M1490.27,414.3c-.28,2.55-1.55,16.72-1.84,19-.42,3.26-2.41,4.82-5.24,4a40.08,40.08,0,0,0-13.47-2.27c-5.25.14-13.61,2.41-13.61,14.46v31.9l-.14.14v-.14a3.45,3.45,0,0,1-3.4,3.4h-21a3.58,3.58,0,0,1-3.55-3.4V413a3.61,3.61,0,0,1,3.55-3.54h21A3.48,3.48,0,0,1,1456,413v3.54c2.41-3.4,11.91-9.07,21.69-9.07a32.5,32.5,0,0,1,11.2,1.7C1490.56,410,1490.42,412.31,1490.27,414.3Z"/><path class="cls-3" d="M1578.45,484.75h-20.84c-2.55,0-4.11-1.14-5.39-3.55-.71-1.13-6.66-12.47-11.76-22h-6.52v22a3.51,3.51,0,0,1-3.55,3.55h-20.84a3.6,3.6,0,0,1-3.54-3.55V389.06a3.6,3.6,0,0,1,3.54-3.54h20.84a3.6,3.6,0,0,1,3.55,3.54v45.79h6.38c4.53-9.36,9.92-20.7,10.48-21.83,1.42-2.55,2.84-3.54,5.39-3.54h21c4.11,0,5,1.7,3.4,4.39-1.13,2.27-13.89,28.35-16.58,33.17,2.83,4.82,16.87,31,18,33.31C1583.41,483.19,1582.56,484.75,1578.45,484.75Z"/><path class="cls-3" d="M1649.47,464.9c-1.28,10.35-5.53,21.55-31.19,21.55-14.46,0-20.69-3-22.4-4s-2.83-1.84-2.41-5.53a67.84,67.84,0,0,1,1-8.36c.42-3.26,2-5.67,6.66-4.25a42.32,42.32,0,0,0,11.91,1.84c3.4.14,8.64-.14,9.35-3.83.57-3-5.1-5.67-13.46-8.79-7.66-2.83-17.16-9.78-16.16-25.09.7-10.06,7.93-21,30.61-21a74.89,74.89,0,0,1,17.87,2.41c2.55.85,4.39,2.41,4.11,6.1-.29,3.26-.85,7.51-1.14,9.35-.42,2.41-1.56,4.26-6.09,3.26a46.8,46.8,0,0,0-11.49-1.41c-3.54,0-6.52,1.41-6.52,4.11,0,3.12,1,3.82,13.05,9.07C1644.93,445.34,1650.74,454.7,1649.47,464.9Z"/><path class="cls-3" d="M1665.35,481.2V389.06a3.51,3.51,0,0,1,3.54-3.54h20.84a3.51,3.51,0,0,1,3.54,3.54V414c2.55-2.55,10.49-6.52,19-6.52,18.85,0,29.2,9.78,29.2,27.22V481.2a3.51,3.51,0,0,1-3.55,3.55h-20.83a3.51,3.51,0,0,1-3.55-3.55V439.53c0-7.8-6.38-9.92-10.2-9.92s-10.07,2-10.07,9.92V481.2a3.51,3.51,0,0,1-3.54,3.55h-20.84A3.51,3.51,0,0,1,1665.35,481.2Z"/><path class="cls-3" d="M1834.74,446.9c0,21.83-18.71,39.55-41,39.55s-41-17.72-41-39.55,18.71-39.41,41-39.41S1834.74,425.07,1834.74,446.9Zm-25.37,0c0-8.93-6.95-16.16-15.59-16.16s-15.45,7.23-15.45,16.16,6.94,16.16,15.45,16.16S1809.37,455.83,1809.37,446.9Z"/><path class="cls-3" d="M1932.41,446.9c0,21.83-15.16,39.55-36.14,39.55a36.68,36.68,0,0,1-20.84-6.52v31a3.6,3.6,0,0,1-3.54,3.55h-21a3.48,3.48,0,0,1-3.41-3.55V413a3.48,3.48,0,0,1,3.41-3.54h21a3.6,3.6,0,0,1,3.54,3.54v3.54c3-4.25,13.18-9.07,20.84-9.07C1917.25,407.49,1932.41,425.07,1932.41,446.9Zm-27.92,0c0-9.5-6.24-17.29-14.32-17.29s-14.74,7.79-14.74,17.29,6.52,17.15,14.74,17.15S1904.49,456.4,1904.49,446.9Z"/><path class="cls-2" d="M1292.66,72.8v62.51c0,22.54-6.94,36.43-27.07,42.53-6.52,2-17,3-24.67,2.27a66.18,66.18,0,0,1-28.63-9.64,3.68,3.68,0,0,1-1.42-4.68c.71-1.56,4.82-11.06,5.39-12.48,1.13-2.12,3.12-2.26,5-1.27,6.66,3.12,12,6.38,18.85,6.8,16,1,24-5.24,24.38-12.9.29-3.82.29-6.23.29-6.23a49.51,49.51,0,0,1-8.65,4.39,35.76,35.76,0,0,1-12.33,2.13,34,34,0,0,1-26.65-12.48,41.87,41.87,0,0,1-9.5-27.07c0-21.83,15.17-39.41,36.15-39.41,7.65,0,17.86,4.82,21,9.07V72.8a3.48,3.48,0,0,1,3.4-3.55h21A3.6,3.6,0,0,1,1292.66,72.8Zm-57.12,33.88c0,10.63,6,17.15,14.31,17.15,9.64,0,14.89-8.08,14.89-17.15,0-6.52-2.84-17.3-14.89-17.3C1238.65,89.38,1235.54,100.44,1235.54,106.68Z"/><path class="cls-2" d="M1383.25,95.19V141a3.51,3.51,0,0,1-3.55,3.55h-20.83a3.51,3.51,0,0,1-3.55-3.55v-2.83c-5.1,5.52-15,8.08-23,8.08-4.4,0-22.68-2.27-22.68-21.27,0-16.3,11.76-24.1,22.68-25.8,7.09-1,17.15-1.41,23-1.7-.14-4.25-1.7-9.49-10.91-9.49-8.51,0-16.59,3.11-20.7,4.81a2.66,2.66,0,0,1-3.54-1.27c-.71-1.42-4.82-11.62-5.25-12.76s-.42-3.12,1.28-3.83a70.29,70.29,0,0,1,31.47-7.65c16.72,0,33.45,7.09,35.44,24.52A27.7,27.7,0,0,1,1383.25,95.19Zm-27.93,24.67v-8.65s-10.77-.56-15,2.84c-5.39,4.11-3.69,13.18,5.38,13.18S1355.32,119.86,1355.32,119.86Z"/><path class="cls-2" d="M1523.3,94.49V141a3.48,3.48,0,0,1-3.4,3.55h-20.84a3.51,3.51,0,0,1-3.54-3.55V99.31c0-7.8-5.11-9.93-8.79-9.93s-8.79,2-8.79,9.78V141a3.51,3.51,0,0,1-3.54,3.55h-20.84A3.51,3.51,0,0,1,1450,141V99.31c0-7.8-5.1-9.93-8.78-9.93s-8.79,2-8.79,9.93V141a3.51,3.51,0,0,1-3.55,3.55h-20.83a3.51,3.51,0,0,1-3.55-3.55V72.8a3.51,3.51,0,0,1,3.55-3.55h20.83a3.51,3.51,0,0,1,3.55,3.55v3.54c3.12-4.53,11.76-9.07,20.27-9.07,10.49,0,17.15,3,21,8.79,6.23-5.11,13.32-8.79,23.1-8.79C1515.65,67.27,1523.3,77.05,1523.3,94.49Z"/><path class="cls-2" d="M1593.47,146.23c-7.79,0-18-5-21-9.08V141a3.51,3.51,0,0,1-3.54,3.55h-20.84a3.51,3.51,0,0,1-3.54-3.55V48.84a3.51,3.51,0,0,1,3.54-3.54H1569a3.51,3.51,0,0,1,3.54,3.54v25a36.84,36.84,0,0,1,21-6.52c20.84,0,36,17.58,36,39.41S1614.31,146.23,1593.47,146.23Zm-6.23-56.71c-8.23,0-14.75,7.8-14.75,17.3S1579,124,1587.24,124s14.31-7.65,14.31-17.15S1595.46,89.52,1587.24,89.52Z"/><path class="cls-2" d="M1673,42.75V141a3.51,3.51,0,0,1-3.54,3.55h-20.84a3.61,3.61,0,0,1-3.55-3.55V42.75a3.61,3.61,0,0,1,3.55-3.55h20.84A3.51,3.51,0,0,1,1673,42.75Z"/><path class="cls-2" d="M1725,42.75V57.49a3.51,3.51,0,0,1-3.55,3.54h-20.84a3.6,3.6,0,0,1-3.54-3.54V42.75a3.6,3.6,0,0,1,3.54-3.55h20.84A3.6,3.6,0,0,1,1725,42.75Zm0,30.05V141a3.51,3.51,0,0,1-3.55,3.55h-20.84a3.6,3.6,0,0,1-3.54-3.55V72.8a3.6,3.6,0,0,1,3.54-3.55h20.84A3.51,3.51,0,0,1,1725,72.8Z"/><path class="cls-2" d="M1746.29,141.12V72.8a3.51,3.51,0,0,1,3.54-3.55h20.84a3.51,3.51,0,0,1,3.55,3.55v3.54c3.11-4.53,13.18-9.07,21.68-9.07,18.86,0,26.51,9.78,26.51,27.22v46.63a3.48,3.48,0,0,1-3.54,3.41H1798a3.48,3.48,0,0,1-3.54-3.41V99.31c0-7.8-6.38-9.93-10.07-9.93-4,0-10.2,2-10.2,9.93v41.81a3.48,3.48,0,0,1-3.55,3.41h-20.84A3.48,3.48,0,0,1,1746.29,141.12Z"/><path class="cls-2" d="M1923.06,72.8v62.51c0,22.54-7,36.43-27.08,42.53-6.52,2-17,3-24.66,2.27a66.26,66.26,0,0,1-28.64-9.64,3.69,3.69,0,0,1-1.41-4.68c.71-1.56,4.82-11.06,5.38-12.48,1.14-2.12,3.12-2.26,5-1.27,6.66,3.12,12,6.38,18.85,6.8,16,1,24-5.24,24.38-12.9.28-3.82.28-6.23.28-6.23a49.42,49.42,0,0,1-8.64,4.39,35.77,35.77,0,0,1-12.34,2.13,34,34,0,0,1-26.65-12.48,41.92,41.92,0,0,1-9.49-27.07c0-21.83,15.16-39.41,36.14-39.41,7.66,0,17.86,4.82,21,9.07V72.8a3.48,3.48,0,0,1,3.41-3.55h21A3.6,3.6,0,0,1,1923.06,72.8Zm-57.13,33.88c0,10.63,6,17.15,14.32,17.15,9.64,0,14.88-8.08,14.88-17.15,0-6.52-2.83-17.3-14.88-17.3C1869.05,89.38,1865.93,100.44,1865.93,106.68Z"/><path class="cls-2" d="M2076.44,85.84v12.9a3.51,3.51,0,0,1-3.54,3.54h-4.68c1.7,19.56-4.39,43.95-44.23,43.95-19.84,0-43.09-7.66-43.09-32.89,0-15.74,14.17-21.26,17.58-22V90.8c-3.12-1.56-11.63-8.08-11.63-22.11,0-18.57,17.86-25.09,32.46-25.09,14.89,0,32,4.82,34.73,23.24.43,3.83-.42,5-4.39,5h-12.9c-4.11,0-5-.29-6.38-2.56-1.7-2.55-5.67-3.68-9.64-3.4s-8.5,2.84-8.5,7.8c0,4.53,2.55,7.65,9.92,8.5a37.67,37.67,0,0,0,4.25.15H2040a7.42,7.42,0,0,1-.71-1.71c-1-3.11.57-4.67,3.12-4.67H2058c2.56,0,3.69.7,4.82,3.68a18.33,18.33,0,0,1,1,2.7h9.07A3.5,3.5,0,0,1,2076.44,85.84ZM2046,102.28h-25c-10.49,0-15.17,3.69-15.17,10.49,0,7.66,9.07,10.49,18,10.49C2043.41,123.26,2047.1,112.91,2046,102.28Z"/><path class="cls-2" d="M1281.18,265.31v45.78a3.51,3.51,0,0,1-3.54,3.55H1256.8a3.5,3.5,0,0,1-3.54-3.55v-2.83c-5.11,5.53-15,8.08-23,8.08-4.39,0-22.68-2.27-22.68-21.27,0-16.3,11.77-24.09,22.68-25.79,7.09-1,17.15-1.42,23-1.71-.15-4.25-1.71-9.49-10.92-9.49-8.5,0-16.58,3.12-20.7,4.82a2.67,2.67,0,0,1-3.54-1.28c-.71-1.42-4.82-11.62-5.24-12.76s-.43-3.12,1.27-3.82a70.17,70.17,0,0,1,31.47-7.66c16.73,0,33.45,7.09,35.44,24.52A27.78,27.78,0,0,1,1281.18,265.31ZM1253.26,290v-8.65s-10.78-.56-15,2.84c-5.39,4.11-3.69,13.18,5.39,13.18S1253.26,290,1253.26,290Z"/><path class="cls-2" d="M1387.5,314.49c-2.55.86-6.66,1.85-15.17,1.85-12.62,0-16.58-7.23-17.58-9.64a36.5,36.5,0,0,1-24.66,9.64c-21,0-36.15-17.72-36.15-39.55s15.17-39.41,36.15-39.41a37.17,37.17,0,0,1,21,6.52V219a3.51,3.51,0,0,1,3.54-3.54h20.84A3.51,3.51,0,0,1,1379,219v67.48c0,6.66,4.26,5.53,6.67,5.53,2.83-.15,3.26,1.13,3.54,3.11.14,1.71,1,11.2,1.27,14C1390.9,312.23,1389.77,313.79,1387.5,314.49Zm-36.43-37.56c0-9.5-6.67-17.29-14.89-17.29s-14.31,7.79-14.31,17.29,6.23,17.15,14.31,17.15S1351.07,286.43,1351.07,276.93Z"/><path class="cls-2" d="M1494.1,314.49c-2.55.86-6.66,1.85-15.17,1.85-12.61,0-16.58-7.23-17.57-9.64a36.52,36.52,0,0,1-24.67,9.64c-21,0-36.15-17.72-36.15-39.55s15.17-39.41,36.15-39.41a37.12,37.12,0,0,1,21,6.52V219a3.51,3.51,0,0,1,3.55-3.54h20.83a3.51,3.51,0,0,1,3.55,3.54v67.48c0,6.66,4.25,5.53,6.66,5.53,2.83-.15,3.26,1.13,3.54,3.11.14,1.71,1,11.2,1.28,14C1497.5,312.23,1496.37,313.79,1494.1,314.49Zm-36.43-37.56c0-9.5-6.66-17.29-14.88-17.29s-14.32,7.79-14.32,17.29,6.24,17.15,14.32,17.15S1457.67,286.43,1457.67,276.93Z"/><path class="cls-2" d="M1540.74,212.86V227.6a3.51,3.51,0,0,1-3.54,3.54h-20.84a3.6,3.6,0,0,1-3.54-3.54V212.86a3.6,3.6,0,0,1,3.54-3.55h20.84A3.6,3.6,0,0,1,1540.74,212.86Zm0,30v68.18a3.51,3.51,0,0,1-3.54,3.55h-20.84a3.6,3.6,0,0,1-3.54-3.55V242.91a3.6,3.6,0,0,1,3.54-3.55h20.84A3.51,3.51,0,0,1,1540.74,242.91Z"/><path class="cls-2" d="M1610.06,286.71c1-1.27,1.56-1.56,4.54-1.56H1632c3.55,0,4.54.85,3.4,4.82-4.25,15-18.71,26.37-36.71,26.37-22.25,0-41-17.72-41-39.55s18.72-39.41,41-39.41A39,39,0,0,1,1635.58,264c1.27,3.83.14,5-3,5h-18.71a3.74,3.74,0,0,1-3.69-1.84c-3-4.11-6.38-6.52-11.48-6.52a16.17,16.17,0,0,0,0,32.32C1603.68,293,1607.23,290.54,1610.06,286.71Z"/><path class="cls-2" d="M1705.61,314.49a98.41,98.41,0,0,1-20.7,1.85c-13.32,0-23.81-6.38-23.81-22.4V263.75h-11.49a3.51,3.51,0,0,1-3.54-3.55V242.77a3.48,3.48,0,0,1,3.54-3.41h11.49V223.77a3.57,3.57,0,0,1,3.54-3.4h21a3.45,3.45,0,0,1,3.4,3.4v15.59h12.48a3.48,3.48,0,0,1,3.54,3.41V260.2a3.51,3.51,0,0,1-3.54,3.55H1689v17.86c0,10.91,2.41,11.9,14.74,10.35,2.7-.43,3.12,1.13,3.41,3.11.28,1.56,1.13,10.64,1.41,14S1707.88,313.93,1705.61,314.49Z"/><path class="cls-2" d="M1759.33,212.86V227.6a3.51,3.51,0,0,1-3.54,3.54H1735a3.6,3.6,0,0,1-3.54-3.54V212.86a3.6,3.6,0,0,1,3.54-3.55h20.84A3.6,3.6,0,0,1,1759.33,212.86Zm0,30v68.18a3.51,3.51,0,0,1-3.54,3.55H1735a3.6,3.6,0,0,1-3.54-3.55V242.91a3.6,3.6,0,0,1,3.54-3.55h20.84A3.51,3.51,0,0,1,1759.33,242.91Z"/><path class="cls-2" d="M1854,276.79c0,21.83-18.72,39.55-41,39.55s-41-17.72-41-39.55,18.71-39.41,41-39.41S1854,255,1854,276.79Zm-25.38,0a15.85,15.85,0,0,0-15.59-16.16c-8.51,0-15.45,7.23-15.45,16.16s6.94,16.16,15.45,16.16A15.85,15.85,0,0,0,1828.65,276.79Z"/><path class="cls-2" d="M1864,311.23V242.91a3.51,3.51,0,0,1,3.55-3.55h20.83a3.51,3.51,0,0,1,3.55,3.55v3.54c3.12-4.53,13.18-9.07,21.68-9.07,18.86,0,26.51,9.78,26.51,27.22v46.63a3.48,3.48,0,0,1-3.54,3.41h-20.84a3.48,3.48,0,0,1-3.54-3.41V269.42c0-7.8-6.38-9.93-10.07-9.93-4,0-10.2,2-10.2,9.93v41.81a3.48,3.48,0,0,1-3.55,3.41H1867.5A3.48,3.48,0,0,1,1864,311.23Z"/><path class="cls-2" d="M1327.25,414.44c-1.28,3.4-22,64.35-23.11,66.76-1,2.56-1.84,3.55-4.39,3.55H1277.5c-2.56,0-3.41-1-4.54-3.55-.28-.56-5.25-19.27-5.25-19.27s-5.1,18.71-5.38,19.27c-1.14,2.56-2,3.55-4.54,3.55h-22.11c-2.55,0-3.4-1-4.54-3.55-1.13-2.41-21.83-63.36-23.1-66.76s.14-5,2.55-5h20.83c4.26,0,5.11,1.27,6.38,5,.71,2,8.93,40.4,8.93,40.4s8.65-39.69,8.94-40.4c1.27-3.69,2.12-5,6.37-5h11.34c4.26,0,5,1.27,6.24,5,.28.71,8.93,40.4,8.93,40.4s8.22-38.42,8.93-40.4c1.42-3.69,2.13-5,6.38-5h20.84C1327.11,409.48,1328.38,411.18,1327.25,414.44Z"/><path class="cls-2" d="M1413.87,446.9c0,21.83-18.72,39.55-41,39.55s-41-17.72-41-39.55,18.71-39.41,41-39.41S1413.87,425.07,1413.87,446.9Zm-25.38,0a15.85,15.85,0,0,0-15.59-16.16c-8.51,0-15.45,7.23-15.45,16.16s6.94,16.16,15.45,16.16A15.85,15.85,0,0,0,1388.49,446.9Z"/><path class="cls-2" d="M1490.27,414.3c-.28,2.55-1.55,16.72-1.84,19-.42,3.26-2.41,4.82-5.24,4a40.08,40.08,0,0,0-13.47-2.27c-5.25.14-13.61,2.41-13.61,14.46v31.9l-.14.14v-.14a3.45,3.45,0,0,1-3.4,3.4h-21a3.58,3.58,0,0,1-3.55-3.4V413a3.61,3.61,0,0,1,3.55-3.54h21A3.48,3.48,0,0,1,1456,413v3.54c2.41-3.4,11.91-9.07,21.69-9.07a32.5,32.5,0,0,1,11.2,1.7C1490.56,410,1490.42,412.31,1490.27,414.3Z"/><path class="cls-2" d="M1578.45,484.75h-20.84c-2.55,0-4.11-1.14-5.39-3.55-.71-1.13-6.66-12.47-11.76-22h-6.52v22a3.51,3.51,0,0,1-3.55,3.55h-20.84a3.6,3.6,0,0,1-3.54-3.55V389.06a3.6,3.6,0,0,1,3.54-3.54h20.84a3.6,3.6,0,0,1,3.55,3.54v45.79h6.38c4.53-9.36,9.92-20.7,10.48-21.83,1.42-2.55,2.84-3.54,5.39-3.54h21c4.11,0,5,1.7,3.4,4.39-1.13,2.27-13.89,28.35-16.58,33.17,2.83,4.82,16.87,31,18,33.31C1583.41,483.19,1582.56,484.75,1578.45,484.75Z"/><path class="cls-2" d="M1649.47,464.9c-1.28,10.35-5.53,21.55-31.19,21.55-14.46,0-20.69-3-22.4-4s-2.83-1.84-2.41-5.53a67.84,67.84,0,0,1,1-8.36c.42-3.26,2-5.67,6.66-4.25a42.32,42.32,0,0,0,11.91,1.84c3.4.14,8.64-.14,9.35-3.83.57-3-5.1-5.67-13.46-8.79-7.66-2.83-17.16-9.78-16.16-25.09.7-10.06,7.93-21,30.61-21a74.89,74.89,0,0,1,17.87,2.41c2.55.85,4.39,2.41,4.11,6.1-.29,3.26-.85,7.51-1.14,9.35-.42,2.41-1.56,4.26-6.09,3.26a46.8,46.8,0,0,0-11.49-1.41c-3.54,0-6.52,1.41-6.52,4.11,0,3.12,1,3.82,13.05,9.07C1644.93,445.34,1650.74,454.7,1649.47,464.9Z"/><path class="cls-2" d="M1665.35,481.2V389.06a3.51,3.51,0,0,1,3.54-3.54h20.84a3.51,3.51,0,0,1,3.54,3.54V414c2.55-2.55,10.49-6.52,19-6.52,18.85,0,29.2,9.78,29.2,27.22V481.2a3.51,3.51,0,0,1-3.55,3.55h-20.83a3.51,3.51,0,0,1-3.55-3.55V439.53c0-7.8-6.38-9.92-10.2-9.92s-10.07,2-10.07,9.92V481.2a3.51,3.51,0,0,1-3.54,3.55h-20.84A3.51,3.51,0,0,1,1665.35,481.2Z"/><path class="cls-2" d="M1834.74,446.9c0,21.83-18.71,39.55-41,39.55s-41-17.72-41-39.55,18.71-39.41,41-39.41S1834.74,425.07,1834.74,446.9Zm-25.37,0c0-8.93-6.95-16.16-15.59-16.16s-15.45,7.23-15.45,16.16,6.94,16.16,15.45,16.16S1809.37,455.83,1809.37,446.9Z"/><path class="cls-2" d="M1932.41,446.9c0,21.83-15.16,39.55-36.14,39.55a36.68,36.68,0,0,1-20.84-6.52v31a3.6,3.6,0,0,1-3.54,3.55h-21a3.48,3.48,0,0,1-3.41-3.55V413a3.48,3.48,0,0,1,3.41-3.54h21a3.6,3.6,0,0,1,3.54,3.54v3.54c3-4.25,13.18-9.07,20.84-9.07C1917.25,407.49,1932.41,425.07,1932.41,446.9Zm-27.92,0c0-9.5-6.24-17.29-14.32-17.29s-14.74,7.79-14.74,17.29,6.52,17.15,14.74,17.15S1904.49,456.4,1904.49,446.9Z"/></g></g></svg>